<?xml version="1.0" encoding="utf-8"?>
<!-- Generator: Adobe Illustrator 17.1.0, SVG Export Plug-In . SVG Version: 6.00 Build 0)  -->
<!DOCTYPE svg PUBLIC "-//W3C//DTD SVG 1.1//EN" "http://www.w3.org/Graphics/SVG/1.1/DTD/svg11.dtd">
<svg version="1.1" id="Layer_2" xmlns="http://www.w3.org/2000/svg" xmlns:xlink="http://www.w3.org/1999/xlink" x="0px" y="0px"
	 viewBox="0 0 572.8 347.6" enable-background="new 0 0 572.8 347.6" xml:space="preserve">
<path fill="#211C19" d="M346.4,11.1c-1.8,0.7-3.5,1.6-5.3,2.4c-1.7,0.8-3.5,1.7-5.2,2.6c-1.7,0.9-3.4,1.8-5.1,2.7
	c-0.8,0.5-1.7,0.9-2.5,1.4l-2.5,1.4l0.9-0.6c-3.4,3.2-6.8,6.5-10.1,9.7l-10,9.9c-6.6,6.7-13.2,13.3-19.9,19.9l-40.3,39.2l-20.1,19.7
	c-6.7,6.6-13.3,13.2-19.9,19.8L186.6,159c-6.6,6.7-13.2,13.3-19.7,20l-19.6,20.1l-19.5,20.2c-6.5,6.7-12.9,13.5-19.3,20.3
	c-6.4,6.8-12.9,13.6-19.2,20.5c-6.3,6.9-12.7,13.7-19,20.6l-18.7,20.9c-6.1,7-12.1,14.1-18.2,21.2c-1.5,1.8-3,3.6-4.4,5.4l-4.4,5.4
	c-2.9,3.6-5.9,6.9-8.8,10.5L4.8,331h0c6.9-3,13.7-6.8,20.5-10.3l10.3-5l10.3-5c6.9-3.4,13.8-6.6,20.7-9.9c6.9-3.3,13.9-6.5,20.8-9.7
	c6.9-3.3,13.9-6.3,20.9-9.5l10.5-4.7l10.5-4.6c7-3,14-6.1,21.1-9l21.2-8.8l21.3-8.4l5.3-2.1l5.4-2l10.8-4c7.2-2.7,14.3-5.4,21.6-7.8
	l21.7-7.5l21.9-6.9c7.3-2.4,14.7-4.4,22-6.4l11-3.1c1.8-0.5,3.7-1.1,5.5-1.5l5.6-1.3l22.3-5.3c1-0.2,2.1,0.4,2.3,1.4
	c0.2,1-0.4,2-1.3,2.3l-0.1,0l-22,6.1l-5.5,1.5c-1.8,0.5-3.6,1.1-5.4,1.7l-10.9,3.5c-7.2,2.3-14.5,4.5-21.6,7.2l-21.5,7.6l-21.3,8.2
	c-7.1,2.7-14.1,5.6-21.1,8.5l-10.5,4.4l-5.3,2.2l-5.2,2.3l-20.9,9.1l-20.7,9.5c-6.9,3.1-13.8,6.5-20.6,9.7l-10.3,4.9l-10.2,5
	c-6.8,3.4-13.6,6.7-20.4,10.2c-6.8,3.5-13.6,6.8-20.3,10.4c-6.7,3.5-13.5,7-20.2,10.6L43,330l-10,5.5c-6.6,3.7-13.3,7.4-19.8,11.1
	l0,0l0,0c-4.1,2.3-9.4,0.9-11.7-3.3c-1.8-3.1-1.4-6.9,0.8-9.6c3-3.7,6-7.4,9-11.1l4.5-5.5c1.5-1.8,3-3.7,4.6-5.4
	c6.3-7,12.5-14.1,18.9-21.1l19.2-20.7c6.5-6.8,13-13.6,19.5-20.4c6.5-6.8,13.1-13.5,19.7-20.2c6.6-6.7,13.1-13.4,19.8-20l19.9-19.9
	l20.1-19.8c6.7-6.6,13.4-13.1,20.1-19.7l20.2-19.6l40.4-39.2l20.2-19.6l20.4-19.4c6.8-6.4,13.8-12.7,20.8-19
	c7-6.3,13.9-12.6,20.7-19.1c0.2-0.2,0.5-0.4,0.8-0.6l0.1-0.1l2.5-1.5c0.8-0.5,1.7-1,2.5-1.5c1.6-1,3.3-2,4.9-3.1
	c1.6-1,3.2-2.1,4.8-3.2c1.6-1.1,3.2-2.2,4.7-3.4c2.6-2,6.3-1.5,8.3,1.1c2,2.6,1.5,6.3-1.1,8.3C347.4,10.6,346.9,10.9,346.4,11.1z"/>
<path fill="#211C19" d="M508.8,75.8c-3.6,1.6-7.2,3.3-10.7,5l-2.6,1.3c-0.9,0.4-1.7,0.9-2.5,1.3l-1.2,0.7l-1,0.6l-0.5,0.3l-0.1,0
	c-0.1,0.1,0.9-0.6,0.4-0.3l0,0l-0.1,0.1l-0.3,0.3c-0.2,0.2-0.2,0.3-0.4,0.5c-2.3,2.9-4.7,6.1-7,9.2c-2.3,3.2-4.6,6.4-6.9,9.6
	c-9.1,12.9-18,26-26.6,39.3c-4.3,6.6-8.6,13.3-12.7,20c-2.1,3.3-4.2,6.7-6.2,10.1l-6.1,10.1c-2,3.4-4,6.8-6,10.2
	c-2,3.4-3.8,6.9-5.6,10.3c-1.8,3.5-3.4,7-5,10.6c-0.8,1.8-1.4,3.6-1.8,5.5c-0.5,1.9-0.7,3.9-0.6,6l0,0L392.7,213l10.8-3.3l10.7-3.2
	c7.2-2.1,14.3-4.3,21.5-6.3c14.4-4.2,28.8-8.2,43.2-12.1c14.5-3.8,29-7.5,43.7-10.8c3.7-0.8,7.4-1.6,11.1-2.3l5.6-1.1l5.6-1
	c1.9-0.3,3.8-0.6,5.7-0.9c1.9-0.3,3.8-0.5,5.7-0.7l2.9-0.2l1.5-0.1l1.5,0c1,0,2-0.1,3-0.1l3.2,0.2c2.6,0.1,4.6,2.3,4.5,4.9
	c-0.1,2.5-2.2,4.5-4.6,4.5l-0.6,0l-2.4,0c-0.8,0-1.7,0.1-2.5,0.2l-1.3,0.1l-1.3,0.2l-2.6,0.4c-1.8,0.3-3.5,0.6-5.3,1
	c-1.8,0.4-3.6,0.7-5.3,1.1l-5.3,1.3l-5.3,1.4c-3.6,0.9-7.1,1.9-10.7,2.9c-14.2,4-28.3,8.5-42.4,13.2c-14.1,4.7-28.1,9.5-42.1,14.5
	c-7,2.5-14,5-20.9,7.6l-10.4,3.8l-10.4,3.9c-5.2,1.9-10.9-0.7-12.8-5.8c-0.9-2.5-0.8-5.1,0.2-7.4l0.2-0.4l0,0
	c1.8-1.5,3.2-3.1,4.5-4.8c1.3-1.6,2.4-3.4,3.5-5.1c1-1.8,2.1-3.5,3.1-5.2c1-1.7,2.1-3.5,3.1-5.2l6.2-10.4c2-3.5,4.1-6.9,6.2-10.3
	c2.1-3.4,4.2-6.8,6.4-10.2c2.2-3.4,4.3-6.7,6.5-10c4.4-6.7,8.8-13.3,13.3-19.9l6.8-9.9l6.8-9.8c4.6-6.5,9.2-13,14-19.4
	c2.4-3.2,4.7-6.4,7.1-9.6c2.4-3.2,4.8-6.4,7.6-9.6c0.5-0.5,1.1-1.3,1.6-1.7l0.3-0.3l0.1-0.1l0,0c-0.4,0.3,0.6-0.4,0.5-0.4l0.1-0.1
	l0.8-0.5c0.5-0.3,1-0.6,1.5-0.9l1.4-0.7c0.9-0.5,1.9-0.9,2.8-1.4l2.7-1.3c3.7-1.7,7.3-3.3,11-5c2.5-1.1,5.5,0,6.6,2.6
	C512.4,71.8,511.3,74.7,508.8,75.8L508.8,75.8z"/>
</svg>
